<?xml version="1.0" encoding="UTF-8"?>
<svg id="Layer_2" data-name="Layer 2" xmlns="http://www.w3.org/2000/svg" viewBox="0 0 104.12 16.58">
  <defs>
    <style>
      .cls-1 {
        fill: #d4d8e3;
      }
    </style>
  </defs>
  <g id="Layer_1-2" data-name="Layer 1">
    <g>
      <path class="cls-1" d="M0,.36H5.69c5.49,0,8.43,3.18,8.43,7.95s-2.94,7.95-8.43,7.95H0V.36ZM5.69,14.66c4.5,0,6.68-2.53,6.68-6.34S10.19,1.97,5.69,1.97H1.75V14.66h3.94Z"/>
      <path class="cls-1" d="M15.65,10.33c0-3.74,2.67-6.39,6.47-6.39s6.44,2.6,6.44,6.39v5.93h-1.51v-2.97c-.85,2.14-2.84,3.28-5.18,3.28-3.38,0-6.22-2.41-6.22-6.25Zm11.28-.07c0-2.77-1.94-4.81-4.81-4.81s-4.81,2.04-4.81,4.81,1.94,4.81,4.81,4.81,4.81-2.04,4.81-4.81Z"/>
      <path class="cls-1" d="M30.94,11.84V0h1.63V4.25h7.07v1.48h-7.07v6.1c0,2.19,1.22,3.23,3.09,3.23s3.09-1.02,3.09-3.23v-.27h1.58v.27c0,3.16-1.9,4.74-4.67,4.74s-4.72-1.58-4.72-4.74Z"/>
      <path class="cls-1" d="M41.88,10.33c0-3.74,2.67-6.39,6.47-6.39s6.44,2.6,6.44,6.39v5.93h-1.51v-2.97c-.85,2.14-2.84,3.28-5.18,3.28-3.38,0-6.22-2.41-6.22-6.25Zm11.28-.07c0-2.77-1.94-4.81-4.81-4.81s-4.81,2.04-4.81,4.81,1.94,4.81,4.81,4.81,4.81-2.04,4.81-4.81Z"/>
      <path class="cls-1" d="M57.17,9.24c0-3.57,2.09-5.3,4.86-5.3,1.94,0,3.55,.92,4.33,2.7,.75-1.77,2.36-2.7,4.33-2.7,2.77,0,4.86,1.73,4.86,5.3v7.02h-1.63v-7.02c0-2.55-1.41-3.79-3.35-3.79s-3.38,1.29-3.38,3.79v7.02h-1.63v-7.02c0-2.5-1.46-3.79-3.4-3.79s-3.35,1.24-3.35,3.79v7.02h-1.63v-7.02Z"/>
      <path class="cls-1" d="M77.44,10.26c0-3.65,2.67-6.32,6.47-6.32s6.47,2.67,6.47,6.32-2.67,6.32-6.47,6.32-6.47-2.67-6.47-6.32Zm11.28,0c0-2.77-1.94-4.81-4.81-4.81s-4.81,2.04-4.81,4.81,1.94,4.81,4.81,4.81,4.81-2.04,4.81-4.81Z"/>
      <path class="cls-1" d="M92.26,9.99c0-3.99,2.38-6.05,5.93-6.05s5.93,2.07,5.93,6.05v6.27h-1.63v-6.27c0-2.97-1.7-4.55-4.3-4.55s-4.3,1.58-4.3,4.55v6.27h-1.63v-6.27Z"/>
    </g>
  </g>
</svg>